<?xml version="1.0" encoding="utf-8"?>
<!-- Generator: Adobe Illustrator 24.0.1, SVG Export Plug-In . SVG Version: 6.00 Build 0)  -->
<svg version="1.1" id="Layer_2" xmlns="http://www.w3.org/2000/svg" xmlns:xlink="http://www.w3.org/1999/xlink" x="0px" y="0px"
	 viewBox="0 0 350 95" style="enable-background:new 0 0 350 95;" xml:space="preserve">
<g>
	<rect x="86.1" y="16.8" width="6.5" height="76.5"/>
	<polygon points="201.3,37.9 182,86.8 162.7,37.9 156.1,37.9 178.4,93.3 185.3,93.3 207.9,37.9 	"/>
	<polygon points="46.6,17.2 41.3,36.6 36.6,17.8 33.1,17.8 28.4,36.6 23.1,17.2 19.6,17.2 26.7,40.3 30.3,40.3 34.8,21.8 39.4,40.3 
		43,40.3 50.1,17.2 	"/>
	<path d="M135.4,36.5c-10.6,0-18.8,5-23,8.2l-0.7-6.8h-5.4v55.4h6.1V49.2c0,0,10.6-7.1,19.6-7.2c9.8-0.2,14.2,2.2,14.2,14.7v36.7
		h6.1V56.6C152.4,47.1,151.7,36.5,135.4,36.5z"/>
	<path d="M292.5,36.5c-10.6,0-18.8,5-23,8.2l-0.7-6.8h-5.4v55.4h6.1V49.2c0,0,10.6-7.1,19.6-7.2c9.8-0.2,14.2,2.2,14.2,14.7v36.7
		h6.1V56.6C309.5,47.1,308.8,36.5,292.5,36.5z"/>
	<path d="M337.8,88.4c-5.5-0.4-6.4-4.5-6.4-9.3V43.4h17.9v-5h-17.9V22.2h-5.2l-0.9,16.2l-10.7,0.7v4.3h10.7v39.1
		c0,6.6,4.3,10.3,11.1,11.4c6.8,1,13.6-1.8,13.6-1.8v-4.9C350,87.2,343.3,88.8,337.8,88.4z"/>
	<path d="M255,56.2c-0.1-6.5-2.8-19.8-21.6-19.8c-18.8,0-25.2,15.4-25.2,29.2c0,13.8,5.7,28.4,24,29.3c13.5,0.6,21.6-4.5,21.6-4.5
		v-5.1c0,0-10.3,5.3-20.8,4.1c-10.2-1.2-18.3-5.5-18.6-22.7h39.8C254.2,66.7,255.1,62.7,255,56.2z M248.5,61.8h-34
		c1.1-15,8.8-19.9,20.1-19.9C246.8,41.9,250.1,53.4,248.5,61.8z"/>
	<path d="M20.2,56.6c-9.4-0.9-11.9,3.3-14.7,5.4L5,56.6H1.4l0,36.9h4.1V65.4c0,0,1.8-2.9,6.2-4.5c2.2-0.8,5-0.9,8.4-0.7L20.2,56.6z"
		/>
	<path d="M54,68.9c-0.1-4.3-1.9-13.3-14.3-13.3C27.2,55.6,23,66,23,75.1c0,9.1,3.8,18.8,15.9,19.4c9,0.4,14.3-3,14.3-3v-3.4
		c0,0-6.9,3.5-13.8,2.7c-6.8-0.8-12.1-3.6-12.3-15h26.4C53.5,75.8,54.1,73.2,54,68.9z M49.7,72.6H27.2c0.7-9.9,5.8-13.3,13.3-13.3
		C48.6,59.2,50.8,67,49.7,72.6z"/>
	<circle cx="64" cy="59.6" r="3.3"/>
	<circle cx="64" cy="90.5" r="3.3"/>
	<path d="M17.5,40.3h3.5l-8.8-23.1H8.8L0,40.3h3.5l2.1-6.2h9.8L17.5,40.3z M6.5,31.7l4-11.5l4.1,11.5H6.5z"/>
	<path d="M65.7,20.6c0,0-2.5-1.1-6.1-1.1c-3.6,0-4.6,1.9-4.6,3.6c0,1.7,0.8,2.9,5.3,4.3s6.8,3.2,6.8,6.8c0,3.8-3.4,6.8-8.3,6.8
		c-3.8,0-7.1-1.4-7.1-1.4V37c0,0,3,1.2,7,1.2s5.1-2.4,5.1-4.1c0-2.2-1.8-3.2-6.6-4.7c-4.4-1.4-5.7-3.9-5.7-6.5s2.5-5.9,7.1-6.2
		c4.2-0.2,7.1,1.2,7.1,1.2V20.6z"/>
</g>
</svg>
